<?xml version="1.0" encoding="UTF-8" standalone="no"?>
<svg
   id="Ebene_1"
   data-name="Ebene 1"
   viewBox="0 0 184.03524 132.38102"
   version="1.1"
   sodipodi:docname="natter_Logo_separated.svg"
   width="184.03523"
   height="132.38101"
   inkscape:version="1.2.2 (732a01da63, 2022-12-09, custom)"
   xmlns:inkscape="http://www.inkscape.org/namespaces/inkscape"
   xmlns:sodipodi="http://sodipodi.sourceforge.net/DTD/sodipodi-0.dtd"
   xmlns="http://www.w3.org/2000/svg"
   xmlns:svg="http://www.w3.org/2000/svg">
  <sodipodi:namedview
     id="namedview31"
     pagecolor="#505050"
     bordercolor="#eeeeee"
     borderopacity="1"
     inkscape:showpageshadow="0"
     inkscape:pageopacity="0"
     inkscape:pagecheckerboard="0"
     inkscape:deskcolor="#505050"
     showgrid="false"
     inkscape:zoom="3.1787136"
     inkscape:cx="89.973504"
     inkscape:cy="65.907164"
     inkscape:window-width="1854"
     inkscape:window-height="1043"
     inkscape:window-x="1986"
     inkscape:window-y="0"
     inkscape:window-maximized="1"
     inkscape:current-layer="Ebene_1" />
  <defs
     id="defs20">
    <style
       id="style18">.cls-1{fill:#071b50;}</style>
  </defs>
  <path
     class="cls-1"
     d="m 131.05732,37.941 v 0 c -5.6,49.67 -11.53,65.91 -14.51,71.16 v 0 c -3.06,5.68 -9.29,13.12 -17.299998,13.14 4.359998,5.13 10.439998,10.15 17.949998,10.14 a 17.39,17.39 0 0 0 2.93,-0.25 c 12.63,-2.17 18.35,-17 21.93,-29.65 4.5,-15.94 8.32,-39.71 11.69,-72.65 0,-0.19 0,-0.17 0,-0.33 a 15.44,15.44 0 0 1 1.26,-4.48 c -12.26,0.08 -23.82,12.78 -23.95,12.92 z"
     id="path22" />
  <path
     class="cls-1"
     d="m 54.347322,39.521 a 44.15,44.15 0 0 1 11.24,-4.78 22.3,22.3 0 0 1 11.35,-0.33 l -1,-1.67 c -8.38,-14.16 -18,-15.9 -24.58,-14.87 -14,2.21 -25.75,19 -38,54.39 -7.8699995,22.83 -12.8799995,44.83 -13.0899995,45.75 a 10.862322,10.862322 0 1 0 21.1899995,4.79 c 0,-0.2 4.73,-20.74 11.88,-41.83 10.3,-30.35 17.81,-38.79 20.51,-41 a 2.13,2.13 0 0 1 0.5,-0.45 z"
     id="path24" />
  <path
     class="cls-1"
     d="m 95.397322,117.221 c 4.31,1.78 8.579998,0.54 12.689998,-3.71 a 32.43,32.43 0 0 0 5.44,-7.87 1.18,1.18 0 0 1 0.11,-0.19 c -1.27,-1.8 -2.79,-4.17 -4.58,-7.29 -4.65,-8.09 -9.509998,-18.35 -14.669998,-29.22 -4.31,-9.1 -8.73,-18.43 -13.28,-27 -7,-8.75 -22.22,-0.23 -24.29,1 0.16,0.25 0.33,0.53 0.5,0.82 5.87,9.92 11.78,22.39 17.5,34.45 6.29,13.25 12.22,25.77 18.19,35.3 0.62,1 1.42,2.29 2.39,3.71 z"
     id="path26" />
  <path
     class="cls-1"
     d="m 182.47732,12.441 a 25.71,25.71 0 0 0 -17.87,-12.11000022 c -10.5,-1.44999998 -17.5,2.14000002 -21.52,5.41000002 -9.32,7.5700002 -10.76,19.7000002 -10.95,22.0000002 -0.13,1.25 -0.26,2.47 -0.39,3.68 a 56,56 0 0 1 6.58,-5 c 8.19,-5.26 16.13,-6.87 23,-4.69 h 0.2 a 4.18,4.18 0 0 1 2.42,1.93 10.832909,10.832909 0 0 0 18.51,-11.26 z m -20.78,9.36 h 0.13 -0.25 z m 0.11,0 v 0 c 0,0 -0.12,0 0,0 z m 8.53,-5 c -1,0 -1.85,-1.5 -1.85,-3.35 0,-1.85 0.83,-3.35 1.85,-3.35 1.02,0 1.84,1.5 1.84,3.35 0,1.85 -0.82,3.41 -1.84,3.41 z"
     id="path28" />
</svg>
