<svg id="Ebene_1" data-name="Ebene 1" xmlns="http://www.w3.org/2000/svg" viewBox="0 0 491.58 542.94"><defs><style>.cls-1{fill:#ec6608;}</style></defs><path class="cls-1" d="M358.81,573.56h-99.4a9,9,0,0,1,0-18h99.4c5,0,9.23-5.95,9.23-13V450.43c0-7-8.13-13-13.23-13h-31.2c-15,0-27.23-13.9-27.23-31V378.38c0-6.87-6.84-13-12.23-13H261.42c-15,0-27.23-13.9-27.23-31V296.35a9,9,0,0,1,18,0v38.07c0,7,4.22,13,9.23,13h22.73c7.32,0,14.86,3.28,20.7,9a30.78,30.78,0,0,1,9.53,22v28.09c0,7,4.23,13,9.23,13h31.2c14.44,0,31.23,13.53,31.23,31v92.15C386,559.66,373.82,573.56,358.81,573.56Z" transform="translate(-190.23 -69.81)"/><path class="cls-1" d="M395,612.75H220.21a9,9,0,0,1,0-18H395a13,13,0,0,0,13-13V330.6a13,13,0,0,0-13-13h-23.7a31.11,31.11,0,0,1-31-30.46V208.54a9,9,0,1,1,18,0v78.39a13,13,0,0,0,13,12.69H395a31,31,0,0,1,31,31V581.77A31,31,0,0,1,395,612.75Z" transform="translate(-190.23 -69.81)"/><path class="cls-1" d="M375.31,216.38H330.58A30.63,30.63,0,0,1,300,185.79v-61.6a9,9,0,0,1,18,0v61.6a12.6,12.6,0,0,0,12.59,12.59h44.73a12.6,12.6,0,0,0,12.59-12.59v-107a9,9,0,0,1,18,0v107A30.63,30.63,0,0,1,375.31,216.38Z" transform="translate(-190.23 -69.81)"/><path class="cls-1" d="M522.16,178.48h-44a31,31,0,0,1-31-31V90.92a9,9,0,1,1,18,0V147.5a13,13,0,0,0,13,13h44a13,13,0,0,0,13-13V115.23a9,9,0,0,1,18,0V147.5A31,31,0,0,1,522.16,178.48Z" transform="translate(-190.23 -69.81)"/><path class="cls-1" d="M653,612.75H478.2a31,31,0,0,1-31-31V268.15a31,31,0,0,1,31-31,13,13,0,0,0,13-13V169.48a9,9,0,1,1,18,0V224.2a31,31,0,0,1-31,31,13,13,0,0,0-13,13V581.77a13,13,0,0,0,13,13H653a9,9,0,0,1,0,18Z" transform="translate(-190.23 -69.81)"/><path class="cls-1" d="M613.73,573.56H517.3c-17.08,0-31-13.17-31-29.36V413.74c0-16.18,13.9-29.35,31-29.35h32.89c7.15,0,13-5.1,13-11.36V351.12c0-16.19,13.9-29.36,31-29.36h12.73c7.16,0,13-5.09,13-11.35v-36a9,9,0,0,1,18,0v36c0,16.18-13.9,29.35-31,29.35H594.14c-7.15,0-13,5.1-13,11.36V373c0,16.19-13.89,29.36-31,29.36H517.3c-7.16,0-13,5.09-13,11.35V544.2c0,6.26,5.82,11.36,13,11.36h96.43a9,9,0,0,1,0,18Z" transform="translate(-190.23 -69.81)"/><path class="cls-1" d="M650.83,273.16h-44a31,31,0,0,1-31-31V185.59a9,9,0,0,1,18,0v56.59a13,13,0,0,0,13,13h44a13,13,0,0,0,13-13V209.91a9,9,0,1,1,18,0v32.27A31,31,0,0,1,650.83,273.16Z" transform="translate(-190.23 -69.81)"/><path class="cls-1" d="M265.16,305.35h-44a31,31,0,0,1-31-31v-17.3a9,9,0,0,1,18,0v17.3a13,13,0,0,0,13,13h44a13,13,0,0,0,13-13V242.1a9,9,0,0,1,18,0v32.27A31,31,0,0,1,265.16,305.35Z" transform="translate(-190.23 -69.81)"/></svg>