<?xml version="1.0" encoding="UTF-8"?>
<!-- Do not edit this file with editors other than draw.io -->
<!DOCTYPE svg PUBLIC "-//W3C//DTD SVG 1.1//EN" "http://www.w3.org/Graphics/SVG/1.1/DTD/svg11.dtd">
<svg xmlns="http://www.w3.org/2000/svg" xmlns:xlink="http://www.w3.org/1999/xlink" version="1.1" width="601px" height="766px" viewBox="-0.5 -0.5 601 766" content="&lt;mxfile host=&quot;app.diagrams.net&quot; modified=&quot;2023-08-04T15:38:49.621Z&quot; agent=&quot;Mozilla/5.0 (X11; Ubuntu; Linux x86_64; rv:109.0) Gecko/20100101 Firefox/115.0&quot; etag=&quot;VCauvE2-xtcRgIdJqXSp&quot; version=&quot;21.6.6&quot; type=&quot;device&quot;&gt;&#xA;  &lt;diagram id=&quot;C5RBs43oDa-KdzZeNtuy&quot; name=&quot;Page-1&quot;&gt;&#xA;    &lt;mxGraphModel dx=&quot;1370&quot; dy=&quot;793&quot; grid=&quot;1&quot; gridSize=&quot;10&quot; guides=&quot;1&quot; tooltips=&quot;1&quot; connect=&quot;1&quot; arrows=&quot;1&quot; fold=&quot;1&quot; page=&quot;1&quot; pageScale=&quot;1&quot; pageWidth=&quot;827&quot; pageHeight=&quot;1169&quot; math=&quot;0&quot; shadow=&quot;0&quot;&gt;&#xA;      &lt;root&gt;&#xA;        &lt;mxCell id=&quot;WIyWlLk6GJQsqaUBKTNV-0&quot; /&gt;&#xA;        &lt;mxCell id=&quot;WIyWlLk6GJQsqaUBKTNV-1&quot; parent=&quot;WIyWlLk6GJQsqaUBKTNV-0&quot; /&gt;&#xA;        &lt;mxCell id=&quot;zkfFHV4jXpPFQw0GAbJ--0&quot; value=&quot;NodeInfo&quot; style=&quot;swimlane;fontStyle=1;align=center;verticalAlign=top;childLayout=stackLayout;horizontal=1;startSize=26;horizontalStack=0;resizeParent=1;resizeLast=0;collapsible=1;marginBottom=0;rounded=0;shadow=0;strokeWidth=1;sketch=1;curveFitting=1;jiggle=1;&quot; parent=&quot;WIyWlLk6GJQsqaUBKTNV-1&quot; vertex=&quot;1&quot;&gt;&#xA;          &lt;mxGeometry x=&quot;40&quot; y=&quot;40&quot; width=&quot;360&quot; height=&quot;206&quot; as=&quot;geometry&quot;&gt;&#xA;            &lt;mxRectangle x=&quot;220&quot; y=&quot;120&quot; width=&quot;160&quot; height=&quot;26&quot; as=&quot;alternateBounds&quot; /&gt;&#xA;          &lt;/mxGeometry&gt;&#xA;        &lt;/mxCell&gt;&#xA;        &lt;mxCell id=&quot;C1T5JNL7Xun3S_Y5YHtj-2&quot; value=&quot;-status_: NodeStatus&quot; style=&quot;text;align=left;verticalAlign=top;spacingLeft=4;spacingRight=4;overflow=hidden;rotatable=0;points=[[0,0.5],[1,0.5]];portConstraint=eastwest;sketch=1;curveFitting=1;jiggle=1;&quot; parent=&quot;zkfFHV4jXpPFQw0GAbJ--0&quot; vertex=&quot;1&quot;&gt;&#xA;          &lt;mxGeometry y=&quot;26&quot; width=&quot;360&quot; height=&quot;26&quot; as=&quot;geometry&quot; /&gt;&#xA;        &lt;/mxCell&gt;&#xA;        &lt;mxCell id=&quot;C1T5JNL7Xun3S_Y5YHtj-1&quot; value=&quot;-p_node_info_: PhysicalNodeInfo&quot; style=&quot;text;align=left;verticalAlign=top;spacingLeft=4;spacingRight=4;overflow=hidden;rotatable=0;points=[[0,0.5],[1,0.5]];portConstraint=eastwest;sketch=1;curveFitting=1;jiggle=1;&quot; parent=&quot;zkfFHV4jXpPFQw0GAbJ--0&quot; vertex=&quot;1&quot;&gt;&#xA;          &lt;mxGeometry y=&quot;52&quot; width=&quot;360&quot; height=&quot;26&quot; as=&quot;geometry&quot; /&gt;&#xA;        &lt;/mxCell&gt;&#xA;        &lt;mxCell id=&quot;zkfFHV4jXpPFQw0GAbJ--5&quot; value=&quot;-l_node_info_: LogicalNodeInfo&quot; style=&quot;text;align=left;verticalAlign=top;spacingLeft=4;spacingRight=4;overflow=hidden;rotatable=0;points=[[0,0.5],[1,0.5]];portConstraint=eastwest;sketch=1;curveFitting=1;jiggle=1;&quot; parent=&quot;zkfFHV4jXpPFQw0GAbJ--0&quot; vertex=&quot;1&quot;&gt;&#xA;          &lt;mxGeometry y=&quot;78&quot; width=&quot;360&quot; height=&quot;26&quot; as=&quot;geometry&quot; /&gt;&#xA;        &lt;/mxCell&gt;&#xA;        &lt;mxCell id=&quot;zkfFHV4jXpPFQw0GAbJ--4&quot; value=&quot;&quot; style=&quot;line;html=1;strokeWidth=1;align=left;verticalAlign=middle;spacingTop=-1;spacingLeft=3;spacingRight=3;rotatable=0;labelPosition=right;points=[];portConstraint=eastwest;sketch=1;curveFitting=1;jiggle=1;&quot; parent=&quot;zkfFHV4jXpPFQw0GAbJ--0&quot; vertex=&quot;1&quot;&gt;&#xA;          &lt;mxGeometry y=&quot;104&quot; width=&quot;360&quot; height=&quot;8&quot; as=&quot;geometry&quot; /&gt;&#xA;        &lt;/mxCell&gt;&#xA;        &lt;mxCell id=&quot;zkfFHV4jXpPFQw0GAbJ--1&quot; value=&quot;+NodeInfo()&quot; style=&quot;text;align=left;verticalAlign=top;spacingLeft=4;spacingRight=4;overflow=hidden;rotatable=0;points=[[0,0.5],[1,0.5]];portConstraint=eastwest;sketch=1;curveFitting=1;jiggle=1;&quot; parent=&quot;zkfFHV4jXpPFQw0GAbJ--0&quot; vertex=&quot;1&quot;&gt;&#xA;          &lt;mxGeometry y=&quot;112&quot; width=&quot;360&quot; height=&quot;26&quot; as=&quot;geometry&quot; /&gt;&#xA;        &lt;/mxCell&gt;&#xA;        &lt;mxCell id=&quot;zkfFHV4jXpPFQw0GAbJ--2&quot; value=&quot;+NodeInfo(level: uint32_t, number: uint32_t, fanout: uint16_t)&quot; style=&quot;text;align=left;verticalAlign=top;spacingLeft=4;spacingRight=4;overflow=hidden;rotatable=0;points=[[0,0.5],[1,0.5]];portConstraint=eastwest;rounded=0;shadow=0;html=0;sketch=1;curveFitting=1;jiggle=1;&quot; parent=&quot;zkfFHV4jXpPFQw0GAbJ--0&quot; vertex=&quot;1&quot;&gt;&#xA;          &lt;mxGeometry y=&quot;138&quot; width=&quot;360&quot; height=&quot;26&quot; as=&quot;geometry&quot; /&gt;&#xA;        &lt;/mxCell&gt;&#xA;        &lt;mxCell id=&quot;zkfFHV4jXpPFQw0GAbJ--3&quot; value=&quot;+NodeInfo(level: uint32_t, number: uint32_t, fanout: uint16_t,&amp;#xa;address: string, port: uint16_t)&quot; style=&quot;text;align=left;verticalAlign=top;spacingLeft=4;spacingRight=4;overflow=hidden;rotatable=0;points=[[0,0.5],[1,0.5]];portConstraint=eastwest;rounded=0;shadow=0;html=0;sketch=1;curveFitting=1;jiggle=1;&quot; parent=&quot;zkfFHV4jXpPFQw0GAbJ--0&quot; vertex=&quot;1&quot;&gt;&#xA;          &lt;mxGeometry y=&quot;164&quot; width=&quot;360&quot; height=&quot;42&quot; as=&quot;geometry&quot; /&gt;&#xA;        &lt;/mxCell&gt;&#xA;        &lt;mxCell id=&quot;C1T5JNL7Xun3S_Y5YHtj-6&quot; style=&quot;edgeStyle=orthogonalEdgeStyle;rounded=0;orthogonalLoop=1;jettySize=auto;html=1;endArrow=diamond;endFill=1;sketch=1;curveFitting=1;jiggle=1;&quot; parent=&quot;WIyWlLk6GJQsqaUBKTNV-1&quot; source=&quot;zkfFHV4jXpPFQw0GAbJ--6&quot; target=&quot;zkfFHV4jXpPFQw0GAbJ--5&quot; edge=&quot;1&quot;&gt;&#xA;          &lt;mxGeometry relative=&quot;1&quot; as=&quot;geometry&quot;&gt;&#xA;            &lt;mxPoint x=&quot;142&quot; y=&quot;246&quot; as=&quot;targetPoint&quot; /&gt;&#xA;            &lt;Array as=&quot;points&quot;&gt;&#xA;              &lt;mxPoint x=&quot;200&quot; y=&quot;280&quot; /&gt;&#xA;              &lt;mxPoint x=&quot;430&quot; y=&quot;280&quot; /&gt;&#xA;              &lt;mxPoint x=&quot;430&quot; y=&quot;131&quot; /&gt;&#xA;            &lt;/Array&gt;&#xA;          &lt;/mxGeometry&gt;&#xA;        &lt;/mxCell&gt;&#xA;        &lt;mxCell id=&quot;zkfFHV4jXpPFQw0GAbJ--6&quot; value=&quot;LogicalNodeInfo&quot; style=&quot;swimlane;fontStyle=1;align=center;verticalAlign=top;childLayout=stackLayout;horizontal=1;startSize=26;horizontalStack=0;resizeParent=1;resizeLast=0;collapsible=1;marginBottom=0;rounded=0;shadow=0;strokeWidth=1;sketch=1;curveFitting=1;jiggle=1;&quot; parent=&quot;WIyWlLk6GJQsqaUBKTNV-1&quot; vertex=&quot;1&quot;&gt;&#xA;          &lt;mxGeometry x=&quot;40&quot; y=&quot;320&quot; width=&quot;320&quot; height=&quot;482&quot; as=&quot;geometry&quot;&gt;&#xA;            &lt;mxRectangle x=&quot;130&quot; y=&quot;380&quot; width=&quot;160&quot; height=&quot;26&quot; as=&quot;alternateBounds&quot; /&gt;&#xA;          &lt;/mxGeometry&gt;&#xA;        &lt;/mxCell&gt;&#xA;        &lt;mxCell id=&quot;zkfFHV4jXpPFQw0GAbJ--7&quot; value=&quot;-level_: uint32_t&quot; style=&quot;text;align=left;verticalAlign=top;spacingLeft=4;spacingRight=4;overflow=hidden;rotatable=0;points=[[0,0.5],[1,0.5]];portConstraint=eastwest;sketch=1;curveFitting=1;jiggle=1;&quot; parent=&quot;zkfFHV4jXpPFQw0GAbJ--6&quot; vertex=&quot;1&quot;&gt;&#xA;          &lt;mxGeometry y=&quot;26&quot; width=&quot;320&quot; height=&quot;26&quot; as=&quot;geometry&quot; /&gt;&#xA;        &lt;/mxCell&gt;&#xA;        &lt;mxCell id=&quot;zkfFHV4jXpPFQw0GAbJ--8&quot; value=&quot;-number_: uint32_t&quot; style=&quot;text;align=left;verticalAlign=top;spacingLeft=4;spacingRight=4;overflow=hidden;rotatable=0;points=[[0,0.5],[1,0.5]];portConstraint=eastwest;rounded=0;shadow=0;html=0;sketch=1;curveFitting=1;jiggle=1;&quot; parent=&quot;zkfFHV4jXpPFQw0GAbJ--6&quot; vertex=&quot;1&quot;&gt;&#xA;          &lt;mxGeometry y=&quot;52&quot; width=&quot;320&quot; height=&quot;26&quot; as=&quot;geometry&quot; /&gt;&#xA;        &lt;/mxCell&gt;&#xA;        &lt;mxCell id=&quot;C1T5JNL7Xun3S_Y5YHtj-7&quot; value=&quot;-fanout_: uint16_t&quot; style=&quot;text;align=left;verticalAlign=top;spacingLeft=4;spacingRight=4;overflow=hidden;rotatable=0;points=[[0,0.5],[1,0.5]];portConstraint=eastwest;rounded=0;shadow=0;html=0;sketch=1;curveFitting=1;jiggle=1;&quot; parent=&quot;zkfFHV4jXpPFQw0GAbJ--6&quot; vertex=&quot;1&quot;&gt;&#xA;          &lt;mxGeometry y=&quot;78&quot; width=&quot;320&quot; height=&quot;26&quot; as=&quot;geometry&quot; /&gt;&#xA;        &lt;/mxCell&gt;&#xA;        &lt;mxCell id=&quot;C1T5JNL7Xun3S_Y5YHtj-8&quot; value=&quot;-uuid_: UUID&quot; style=&quot;text;align=left;verticalAlign=top;spacingLeft=4;spacingRight=4;overflow=hidden;rotatable=0;points=[[0,0.5],[1,0.5]];portConstraint=eastwest;rounded=0;shadow=0;html=0;sketch=1;curveFitting=1;jiggle=1;&quot; parent=&quot;zkfFHV4jXpPFQw0GAbJ--6&quot; vertex=&quot;1&quot;&gt;&#xA;          &lt;mxGeometry y=&quot;104&quot; width=&quot;320&quot; height=&quot;26&quot; as=&quot;geometry&quot; /&gt;&#xA;        &lt;/mxCell&gt;&#xA;        &lt;mxCell id=&quot;C1T5JNL7Xun3S_Y5YHtj-9&quot; value=&quot;-initialized_: bool&quot; style=&quot;text;align=left;verticalAlign=top;spacingLeft=4;spacingRight=4;overflow=hidden;rotatable=0;points=[[0,0.5],[1,0.5]];portConstraint=eastwest;rounded=0;shadow=0;html=0;sketch=1;curveFitting=1;jiggle=1;&quot; parent=&quot;zkfFHV4jXpPFQw0GAbJ--6&quot; vertex=&quot;1&quot;&gt;&#xA;          &lt;mxGeometry y=&quot;130&quot; width=&quot;320&quot; height=&quot;26&quot; as=&quot;geometry&quot; /&gt;&#xA;        &lt;/mxCell&gt;&#xA;        &lt;mxCell id=&quot;zkfFHV4jXpPFQw0GAbJ--9&quot; value=&quot;&quot; style=&quot;line;html=1;strokeWidth=1;align=left;verticalAlign=middle;spacingTop=-1;spacingLeft=3;spacingRight=3;rotatable=0;labelPosition=right;points=[];portConstraint=eastwest;sketch=1;curveFitting=1;jiggle=1;&quot; parent=&quot;zkfFHV4jXpPFQw0GAbJ--6&quot; vertex=&quot;1&quot;&gt;&#xA;          &lt;mxGeometry y=&quot;156&quot; width=&quot;320&quot; height=&quot;8&quot; as=&quot;geometry&quot; /&gt;&#xA;        &lt;/mxCell&gt;&#xA;        &lt;mxCell id=&quot;zkfFHV4jXpPFQw0GAbJ--10&quot; value=&quot;+LogicalNodeInfo()&quot; style=&quot;text;align=left;verticalAlign=top;spacingLeft=4;spacingRight=4;overflow=hidden;rotatable=0;points=[[0,0.5],[1,0.5]];portConstraint=eastwest;fontStyle=0;sketch=1;curveFitting=1;jiggle=1;&quot; parent=&quot;zkfFHV4jXpPFQw0GAbJ--6&quot; vertex=&quot;1&quot;&gt;&#xA;          &lt;mxGeometry y=&quot;164&quot; width=&quot;320&quot; height=&quot;26&quot; as=&quot;geometry&quot; /&gt;&#xA;        &lt;/mxCell&gt;&#xA;        &lt;mxCell id=&quot;zkfFHV4jXpPFQw0GAbJ--11&quot; value=&quot;+LogicalNodeInfo(fanout: uint16_t)&quot; style=&quot;text;align=left;verticalAlign=top;spacingLeft=4;spacingRight=4;overflow=hidden;rotatable=0;points=[[0,0.5],[1,0.5]];portConstraint=eastwest;sketch=1;curveFitting=1;jiggle=1;&quot; parent=&quot;zkfFHV4jXpPFQw0GAbJ--6&quot; vertex=&quot;1&quot;&gt;&#xA;          &lt;mxGeometry y=&quot;190&quot; width=&quot;320&quot; height=&quot;26&quot; as=&quot;geometry&quot; /&gt;&#xA;        &lt;/mxCell&gt;&#xA;        &lt;mxCell id=&quot;C1T5JNL7Xun3S_Y5YHtj-10&quot; value=&quot;+LogicalNodeInfo(level: uint32_t, number: uint32_t)&quot; style=&quot;text;align=left;verticalAlign=top;spacingLeft=4;spacingRight=4;overflow=hidden;rotatable=0;points=[[0,0.5],[1,0.5]];portConstraint=eastwest;sketch=1;curveFitting=1;jiggle=1;&quot; parent=&quot;zkfFHV4jXpPFQw0GAbJ--6&quot; vertex=&quot;1&quot;&gt;&#xA;          &lt;mxGeometry y=&quot;216&quot; width=&quot;320&quot; height=&quot;24&quot; as=&quot;geometry&quot; /&gt;&#xA;        &lt;/mxCell&gt;&#xA;        &lt;mxCell id=&quot;C1T5JNL7Xun3S_Y5YHtj-11&quot; value=&quot;+LogicalNodeInfo(level: uint32_t, number: uint32_t, &amp;#xa;fanout: uint16_t)&quot; style=&quot;text;align=left;verticalAlign=top;spacingLeft=4;spacingRight=4;overflow=hidden;rotatable=0;points=[[0,0.5],[1,0.5]];portConstraint=eastwest;sketch=1;curveFitting=1;jiggle=1;&quot; parent=&quot;zkfFHV4jXpPFQw0GAbJ--6&quot; vertex=&quot;1&quot;&gt;&#xA;          &lt;mxGeometry y=&quot;240&quot; width=&quot;320&quot; height=&quot;44&quot; as=&quot;geometry&quot; /&gt;&#xA;        &lt;/mxCell&gt;&#xA;        &lt;mxCell id=&quot;C1T5JNL7Xun3S_Y5YHtj-13&quot; value=&quot;+setPosition(other: LogicalNodeInfo)&quot; style=&quot;text;align=left;verticalAlign=top;spacingLeft=4;spacingRight=4;overflow=hidden;rotatable=0;points=[[0,0.5],[1,0.5]];portConstraint=eastwest;fontStyle=0;sketch=1;curveFitting=1;jiggle=1;&quot; parent=&quot;zkfFHV4jXpPFQw0GAbJ--6&quot; vertex=&quot;1&quot;&gt;&#xA;          &lt;mxGeometry y=&quot;284&quot; width=&quot;320&quot; height=&quot;26&quot; as=&quot;geometry&quot; /&gt;&#xA;        &lt;/mxCell&gt;&#xA;        &lt;mxCell id=&quot;C1T5JNL7Xun3S_Y5YHtj-12&quot; value=&quot;+getHorizontalValue(): double&quot; style=&quot;text;align=left;verticalAlign=top;spacingLeft=4;spacingRight=4;overflow=hidden;rotatable=0;points=[[0,0.5],[1,0.5]];portConstraint=eastwest;fontStyle=0;sketch=1;curveFitting=1;jiggle=1;&quot; parent=&quot;zkfFHV4jXpPFQw0GAbJ--6&quot; vertex=&quot;1&quot;&gt;&#xA;          &lt;mxGeometry y=&quot;310&quot; width=&quot;320&quot; height=&quot;26&quot; as=&quot;geometry&quot; /&gt;&#xA;        &lt;/mxCell&gt;&#xA;        &lt;mxCell id=&quot;C1T5JNL7Xun3S_Y5YHtj-14&quot; value=&quot;+isRoot(): bool&quot; style=&quot;text;align=left;verticalAlign=top;spacingLeft=4;spacingRight=4;overflow=hidden;rotatable=0;points=[[0,0.5],[1,0.5]];portConstraint=eastwest;fontStyle=0;sketch=1;curveFitting=1;jiggle=1;&quot; parent=&quot;zkfFHV4jXpPFQw0GAbJ--6&quot; vertex=&quot;1&quot;&gt;&#xA;          &lt;mxGeometry y=&quot;336&quot; width=&quot;320&quot; height=&quot;26&quot; as=&quot;geometry&quot; /&gt;&#xA;        &lt;/mxCell&gt;&#xA;        &lt;mxCell id=&quot;C1T5JNL7Xun3S_Y5YHtj-15&quot; value=&quot;+isSameLevel(other: LogicalNodeInfo): bool&quot; style=&quot;text;align=left;verticalAlign=top;spacingLeft=4;spacingRight=4;overflow=hidden;rotatable=0;points=[[0,0.5],[1,0.5]];portConstraint=eastwest;fontStyle=0;sketch=1;curveFitting=1;jiggle=1;&quot; parent=&quot;zkfFHV4jXpPFQw0GAbJ--6&quot; vertex=&quot;1&quot;&gt;&#xA;          &lt;mxGeometry y=&quot;362&quot; width=&quot;320&quot; height=&quot;28&quot; as=&quot;geometry&quot; /&gt;&#xA;        &lt;/mxCell&gt;&#xA;        &lt;mxCell id=&quot;C1T5JNL7Xun3S_Y5YHtj-16&quot; value=&quot;+isDeeperThan(other: LogicalNodeInfo): bool&quot; style=&quot;text;align=left;verticalAlign=top;spacingLeft=4;spacingRight=4;overflow=hidden;rotatable=0;points=[[0,0.5],[1,0.5]];portConstraint=eastwest;fontStyle=0;sketch=1;curveFitting=1;jiggle=1;&quot; parent=&quot;zkfFHV4jXpPFQw0GAbJ--6&quot; vertex=&quot;1&quot;&gt;&#xA;          &lt;mxGeometry y=&quot;390&quot; width=&quot;320&quot; height=&quot;30&quot; as=&quot;geometry&quot; /&gt;&#xA;        &lt;/mxCell&gt;&#xA;        &lt;mxCell id=&quot;C1T5JNL7Xun3S_Y5YHtj-17&quot; value=&quot;+isDeeperThanOrSameLevel(other: LogicalNodeInfo): &amp;#xa;bool&quot; style=&quot;text;align=left;verticalAlign=top;spacingLeft=4;spacingRight=4;overflow=hidden;rotatable=0;points=[[0,0.5],[1,0.5]];portConstraint=eastwest;fontStyle=0;sketch=1;curveFitting=1;jiggle=1;&quot; parent=&quot;zkfFHV4jXpPFQw0GAbJ--6&quot; vertex=&quot;1&quot;&gt;&#xA;          &lt;mxGeometry y=&quot;420&quot; width=&quot;320&quot; height=&quot;38&quot; as=&quot;geometry&quot; /&gt;&#xA;        &lt;/mxCell&gt;&#xA;        &lt;mxCell id=&quot;C1T5JNL7Xun3S_Y5YHtj-18&quot; value=&quot;+isProNode(): bool&quot; style=&quot;text;align=left;verticalAlign=top;spacingLeft=4;spacingRight=4;overflow=hidden;rotatable=0;points=[[0,0.5],[1,0.5]];portConstraint=eastwest;fontStyle=0;sketch=1;curveFitting=1;jiggle=1;&quot; parent=&quot;zkfFHV4jXpPFQw0GAbJ--6&quot; vertex=&quot;1&quot;&gt;&#xA;          &lt;mxGeometry y=&quot;458&quot; width=&quot;320&quot; height=&quot;24&quot; as=&quot;geometry&quot; /&gt;&#xA;        &lt;/mxCell&gt;&#xA;        &lt;mxCell id=&quot;C1T5JNL7Xun3S_Y5YHtj-4&quot; style=&quot;edgeStyle=orthogonalEdgeStyle;rounded=0;orthogonalLoop=1;jettySize=auto;html=1;endArrow=diamond;endFill=1;sketch=1;curveFitting=1;jiggle=1;&quot; parent=&quot;WIyWlLk6GJQsqaUBKTNV-1&quot; source=&quot;zkfFHV4jXpPFQw0GAbJ--13&quot; target=&quot;C1T5JNL7Xun3S_Y5YHtj-1&quot; edge=&quot;1&quot;&gt;&#xA;          &lt;mxGeometry relative=&quot;1&quot; as=&quot;geometry&quot;&gt;&#xA;            &lt;Array as=&quot;points&quot;&gt;&#xA;              &lt;mxPoint x=&quot;460&quot; y=&quot;105&quot; /&gt;&#xA;            &lt;/Array&gt;&#xA;          &lt;/mxGeometry&gt;&#xA;        &lt;/mxCell&gt;&#xA;        &lt;mxCell id=&quot;zkfFHV4jXpPFQw0GAbJ--13&quot; value=&quot;PhysicalNodeInfo&quot; style=&quot;swimlane;fontStyle=1;align=center;verticalAlign=top;childLayout=stackLayout;horizontal=1;startSize=26;horizontalStack=0;resizeParent=1;resizeLast=0;collapsible=1;marginBottom=0;rounded=0;shadow=0;strokeWidth=1;glass=0;sketch=1;curveFitting=1;jiggle=1;&quot; parent=&quot;WIyWlLk6GJQsqaUBKTNV-1&quot; vertex=&quot;1&quot;&gt;&#xA;          &lt;mxGeometry x=&quot;440&quot; y=&quot;320&quot; width=&quot;200&quot; height=&quot;202&quot; as=&quot;geometry&quot;&gt;&#xA;            &lt;mxRectangle x=&quot;340&quot; y=&quot;380&quot; width=&quot;170&quot; height=&quot;26&quot; as=&quot;alternateBounds&quot; /&gt;&#xA;          &lt;/mxGeometry&gt;&#xA;        &lt;/mxCell&gt;&#xA;        &lt;mxCell id=&quot;C1T5JNL7Xun3S_Y5YHtj-19&quot; value=&quot;-address_: string&quot; style=&quot;text;align=left;verticalAlign=top;spacingLeft=4;spacingRight=4;overflow=hidden;rotatable=0;points=[[0,0.5],[1,0.5]];portConstraint=eastwest;sketch=1;curveFitting=1;jiggle=1;&quot; parent=&quot;zkfFHV4jXpPFQw0GAbJ--13&quot; vertex=&quot;1&quot;&gt;&#xA;          &lt;mxGeometry y=&quot;26&quot; width=&quot;200&quot; height=&quot;26&quot; as=&quot;geometry&quot; /&gt;&#xA;        &lt;/mxCell&gt;&#xA;        &lt;mxCell id=&quot;zkfFHV4jXpPFQw0GAbJ--14&quot; value=&quot;-port_: uint16_t&quot; style=&quot;text;align=left;verticalAlign=top;spacingLeft=4;spacingRight=4;overflow=hidden;rotatable=0;points=[[0,0.5],[1,0.5]];portConstraint=eastwest;sketch=1;curveFitting=1;jiggle=1;&quot; parent=&quot;zkfFHV4jXpPFQw0GAbJ--13&quot; vertex=&quot;1&quot;&gt;&#xA;          &lt;mxGeometry y=&quot;52&quot; width=&quot;200&quot; height=&quot;26&quot; as=&quot;geometry&quot; /&gt;&#xA;        &lt;/mxCell&gt;&#xA;        &lt;mxCell id=&quot;zkfFHV4jXpPFQw0GAbJ--15&quot; value=&quot;&quot; style=&quot;line;html=1;strokeWidth=1;align=left;verticalAlign=middle;spacingTop=-1;spacingLeft=3;spacingRight=3;rotatable=0;labelPosition=right;points=[];portConstraint=eastwest;sketch=1;curveFitting=1;jiggle=1;&quot; parent=&quot;zkfFHV4jXpPFQw0GAbJ--13&quot; vertex=&quot;1&quot;&gt;&#xA;          &lt;mxGeometry y=&quot;78&quot; width=&quot;200&quot; height=&quot;8&quot; as=&quot;geometry&quot; /&gt;&#xA;        &lt;/mxCell&gt;&#xA;        &lt;mxCell id=&quot;C1T5JNL7Xun3S_Y5YHtj-22&quot; value=&quot;+PhysicalNodeInfo()&quot; style=&quot;text;align=left;verticalAlign=top;spacingLeft=4;spacingRight=4;overflow=hidden;rotatable=0;points=[[0,0.5],[1,0.5]];portConstraint=eastwest;fontStyle=0;sketch=1;curveFitting=1;jiggle=1;&quot; parent=&quot;zkfFHV4jXpPFQw0GAbJ--13&quot; vertex=&quot;1&quot;&gt;&#xA;          &lt;mxGeometry y=&quot;86&quot; width=&quot;200&quot; height=&quot;26&quot; as=&quot;geometry&quot; /&gt;&#xA;        &lt;/mxCell&gt;&#xA;        &lt;mxCell id=&quot;C1T5JNL7Xun3S_Y5YHtj-23&quot; value=&quot;+PhysicalNodeInfo(address: string, &amp;#xa;port: uint16_t)&quot; style=&quot;text;align=left;verticalAlign=top;spacingLeft=4;spacingRight=4;overflow=hidden;rotatable=0;points=[[0,0.5],[1,0.5]];portConstraint=eastwest;fontStyle=0;sketch=1;curveFitting=1;jiggle=1;&quot; parent=&quot;zkfFHV4jXpPFQw0GAbJ--13&quot; vertex=&quot;1&quot;&gt;&#xA;          &lt;mxGeometry y=&quot;112&quot; width=&quot;200&quot; height=&quot;38&quot; as=&quot;geometry&quot; /&gt;&#xA;        &lt;/mxCell&gt;&#xA;        &lt;mxCell id=&quot;C1T5JNL7Xun3S_Y5YHtj-20&quot; value=&quot;-isIpv4Address(str: string): bool&quot; style=&quot;text;align=left;verticalAlign=top;spacingLeft=4;spacingRight=4;overflow=hidden;rotatable=0;points=[[0,0.5],[1,0.5]];portConstraint=eastwest;fontStyle=4;sketch=1;curveFitting=1;jiggle=1;&quot; parent=&quot;zkfFHV4jXpPFQw0GAbJ--13&quot; vertex=&quot;1&quot;&gt;&#xA;          &lt;mxGeometry y=&quot;150&quot; width=&quot;200&quot; height=&quot;26&quot; as=&quot;geometry&quot; /&gt;&#xA;        &lt;/mxCell&gt;&#xA;        &lt;mxCell id=&quot;C1T5JNL7Xun3S_Y5YHtj-21&quot; value=&quot;-isIpv6Address(str: string): bool&quot; style=&quot;text;align=left;verticalAlign=top;spacingLeft=4;spacingRight=4;overflow=hidden;rotatable=0;points=[[0,0.5],[1,0.5]];portConstraint=eastwest;fontStyle=4;sketch=1;curveFitting=1;jiggle=1;&quot; parent=&quot;zkfFHV4jXpPFQw0GAbJ--13&quot; vertex=&quot;1&quot;&gt;&#xA;          &lt;mxGeometry y=&quot;176&quot; width=&quot;200&quot; height=&quot;26&quot; as=&quot;geometry&quot; /&gt;&#xA;        &lt;/mxCell&gt;&#xA;        &lt;mxCell id=&quot;zkfFHV4jXpPFQw0GAbJ--17&quot; value=&quot;&amp;lt;&amp;lt;enum&amp;gt;&amp;gt; NodeStatus&quot; style=&quot;swimlane;fontStyle=1;align=center;verticalAlign=top;childLayout=stackLayout;horizontal=1;startSize=26;horizontalStack=0;resizeParent=1;resizeLast=0;collapsible=1;marginBottom=0;rounded=0;shadow=0;strokeWidth=1;sketch=1;curveFitting=1;jiggle=1;&quot; parent=&quot;WIyWlLk6GJQsqaUBKTNV-1&quot; vertex=&quot;1&quot;&gt;&#xA;          &lt;mxGeometry x=&quot;480&quot; y=&quot;40&quot; width=&quot;160&quot; height=&quot;130&quot; as=&quot;geometry&quot;&gt;&#xA;            &lt;mxRectangle x=&quot;550&quot; y=&quot;140&quot; width=&quot;160&quot; height=&quot;26&quot; as=&quot;alternateBounds&quot; /&gt;&#xA;          &lt;/mxGeometry&gt;&#xA;        &lt;/mxCell&gt;&#xA;        &lt;mxCell id=&quot;zkfFHV4jXpPFQw0GAbJ--18&quot; value=&quot;kUninit = 0&quot; style=&quot;text;align=left;verticalAlign=top;spacingLeft=4;spacingRight=4;overflow=hidden;rotatable=0;points=[[0,0.5],[1,0.5]];portConstraint=eastwest;sketch=1;curveFitting=1;jiggle=1;&quot; parent=&quot;zkfFHV4jXpPFQw0GAbJ--17&quot; vertex=&quot;1&quot;&gt;&#xA;          &lt;mxGeometry y=&quot;26&quot; width=&quot;160&quot; height=&quot;26&quot; as=&quot;geometry&quot; /&gt;&#xA;        &lt;/mxCell&gt;&#xA;        &lt;mxCell id=&quot;zkfFHV4jXpPFQw0GAbJ--19&quot; value=&quot;kRunning = 1&quot; style=&quot;text;align=left;verticalAlign=top;spacingLeft=4;spacingRight=4;overflow=hidden;rotatable=0;points=[[0,0.5],[1,0.5]];portConstraint=eastwest;rounded=0;shadow=0;html=0;sketch=1;curveFitting=1;jiggle=1;&quot; parent=&quot;zkfFHV4jXpPFQw0GAbJ--17&quot; vertex=&quot;1&quot;&gt;&#xA;          &lt;mxGeometry y=&quot;52&quot; width=&quot;160&quot; height=&quot;26&quot; as=&quot;geometry&quot; /&gt;&#xA;        &lt;/mxCell&gt;&#xA;        &lt;mxCell id=&quot;zkfFHV4jXpPFQw0GAbJ--20&quot; value=&quot;kLeft = 2&quot; style=&quot;text;align=left;verticalAlign=top;spacingLeft=4;spacingRight=4;overflow=hidden;rotatable=0;points=[[0,0.5],[1,0.5]];portConstraint=eastwest;rounded=0;shadow=0;html=0;sketch=1;curveFitting=1;jiggle=1;&quot; parent=&quot;zkfFHV4jXpPFQw0GAbJ--17&quot; vertex=&quot;1&quot;&gt;&#xA;          &lt;mxGeometry y=&quot;78&quot; width=&quot;160&quot; height=&quot;26&quot; as=&quot;geometry&quot; /&gt;&#xA;        &lt;/mxCell&gt;&#xA;        &lt;mxCell id=&quot;zkfFHV4jXpPFQw0GAbJ--21&quot; value=&quot;kFailed = 3&quot; style=&quot;text;align=left;verticalAlign=top;spacingLeft=4;spacingRight=4;overflow=hidden;rotatable=0;points=[[0,0.5],[1,0.5]];portConstraint=eastwest;rounded=0;shadow=0;html=0;sketch=1;curveFitting=1;jiggle=1;&quot; parent=&quot;zkfFHV4jXpPFQw0GAbJ--17&quot; vertex=&quot;1&quot;&gt;&#xA;          &lt;mxGeometry y=&quot;104&quot; width=&quot;160&quot; height=&quot;26&quot; as=&quot;geometry&quot; /&gt;&#xA;        &lt;/mxCell&gt;&#xA;        &lt;mxCell id=&quot;zkfFHV4jXpPFQw0GAbJ--26&quot; value=&quot;&quot; style=&quot;endArrow=none;shadow=0;strokeWidth=1;rounded=0;endFill=0;edgeStyle=elbowEdgeStyle;elbow=vertical;startArrow=diamond;startFill=1;sketch=1;curveFitting=1;jiggle=1;&quot; parent=&quot;WIyWlLk6GJQsqaUBKTNV-1&quot; source=&quot;zkfFHV4jXpPFQw0GAbJ--0&quot; target=&quot;zkfFHV4jXpPFQw0GAbJ--17&quot; edge=&quot;1&quot;&gt;&#xA;          &lt;mxGeometry x=&quot;0.5&quot; y=&quot;41&quot; relative=&quot;1&quot; as=&quot;geometry&quot;&gt;&#xA;            &lt;mxPoint x=&quot;380&quot; y=&quot;192&quot; as=&quot;sourcePoint&quot; /&gt;&#xA;            &lt;mxPoint x=&quot;540&quot; y=&quot;192&quot; as=&quot;targetPoint&quot; /&gt;&#xA;            &lt;mxPoint x=&quot;-40&quot; y=&quot;32&quot; as=&quot;offset&quot; /&gt;&#xA;            &lt;Array as=&quot;points&quot;&gt;&#xA;              &lt;mxPoint x=&quot;440&quot; y=&quot;80&quot; /&gt;&#xA;            &lt;/Array&gt;&#xA;          &lt;/mxGeometry&gt;&#xA;        &lt;/mxCell&gt;&#xA;      &lt;/root&gt;&#xA;    &lt;/mxGraphModel&gt;&#xA;  &lt;/diagram&gt;&#xA;&lt;/mxfile&gt;&#xA;"><defs><clipPath id="mx-clip-4-31-352-26-0"><rect x="4" y="31" width="352" height="26"/></clipPath><clipPath id="mx-clip-4-57-352-26-0"><rect x="4" y="57" width="352" height="26"/></clipPath><clipPath id="mx-clip-4-83-352-26-0"><rect x="4" y="83" width="352" height="26"/></clipPath><clipPath id="mx-clip-4-117-352-26-0"><rect x="4" y="117" width="352" height="26"/></clipPath><clipPath id="mx-clip-4-143-352-26-0"><rect x="4" y="143" width="352" height="26"/></clipPath><clipPath id="mx-clip-4-169-352-42-0"><rect x="4" y="169" width="352" height="42"/></clipPath><clipPath id="mx-clip-4-311-312-26-0"><rect x="4" y="311" width="312" height="26"/></clipPath><clipPath id="mx-clip-4-337-312-26-0"><rect x="4" y="337" width="312" height="26"/></clipPath><clipPath id="mx-clip-4-363-312-26-0"><rect x="4" y="363" width="312" height="26"/></clipPath><clipPath id="mx-clip-4-389-312-26-0"><rect x="4" y="389" width="312" height="26"/></clipPath><clipPath id="mx-clip-4-415-312-26-0"><rect x="4" y="415" width="312" height="26"/></clipPath><clipPath id="mx-clip-4-449-312-26-0"><rect x="4" y="449" width="312" height="26"/></clipPath><clipPath id="mx-clip-4-475-312-26-0"><rect x="4" y="475" width="312" height="26"/></clipPath><clipPath id="mx-clip-4-501-312-24-0"><rect x="4" y="501" width="312" height="24"/></clipPath><clipPath id="mx-clip-4-525-312-44-0"><rect x="4" y="525" width="312" height="44"/></clipPath><clipPath id="mx-clip-4-569-312-26-0"><rect x="4" y="569" width="312" height="26"/></clipPath><clipPath id="mx-clip-4-595-312-26-0"><rect x="4" y="595" width="312" height="26"/></clipPath><clipPath id="mx-clip-4-621-312-26-0"><rect x="4" y="621" width="312" height="26"/></clipPath><clipPath id="mx-clip-4-647-312-28-0"><rect x="4" y="647" width="312" height="28"/></clipPath><clipPath id="mx-clip-4-675-312-30-0"><rect x="4" y="675" width="312" height="30"/></clipPath><clipPath id="mx-clip-4-705-312-38-0"><rect x="4" y="705" width="312" height="38"/></clipPath><clipPath id="mx-clip-4-743-312-24-0"><rect x="4" y="743" width="312" height="24"/></clipPath><clipPath id="mx-clip-404-311-192-26-0"><rect x="404" y="311" width="192" height="26"/></clipPath><clipPath id="mx-clip-404-337-192-26-0"><rect x="404" y="337" width="192" height="26"/></clipPath><clipPath id="mx-clip-404-371-192-26-0"><rect x="404" y="371" width="192" height="26"/></clipPath><clipPath id="mx-clip-404-397-192-38-0"><rect x="404" y="397" width="192" height="38"/></clipPath><clipPath id="mx-clip-404-435-192-26-0"><rect x="404" y="435" width="192" height="26"/></clipPath><clipPath id="mx-clip-404-461-192-26-0"><rect x="404" y="461" width="192" height="26"/></clipPath><clipPath id="mx-clip-444-31-152-26-0"><rect x="444" y="31" width="152" height="26"/></clipPath><clipPath id="mx-clip-444-57-152-26-0"><rect x="444" y="57" width="152" height="26"/></clipPath><clipPath id="mx-clip-444-83-152-26-0"><rect x="444" y="83" width="152" height="26"/></clipPath><clipPath id="mx-clip-444-109-152-26-0"><rect x="444" y="109" width="152" height="26"/></clipPath></defs><g><path d="M 0 26 L 0 0 L 360 0 L 360 26" fill="none" stroke="none" pointer-events="all"/><path d="M -1.2 27.46 L 0.65 -0.95 L 360.28 1.07 L 360.97 25.76" fill="rgb(255, 255, 255)" stroke="none" pointer-events="none"/><path d="M 0 26 M 0 26 C -0.38 18.9 -0.41 10.37 0 0 M 0 26 C 0.06 16.54 0.11 8.16 0 0 M 0 0 C 129.76 -0.54 259.23 0.41 360 0 M 0 0 C 111.01 -1.1 221.32 -2.09 360 0 M 360 0 C 361.75 5.44 358.66 10.87 360 26 M 360 0 C 360.57 7.4 360.27 17.59 360 26" fill="none" stroke="rgb(0, 0, 0)" stroke-linejoin="round" stroke-linecap="round" stroke-miterlimit="10" pointer-events="none"/><path d="M 0 26 M 0 26 C 0.36 69.49 2.38 113.4 0 206 M 0 26 C 0.95 77.73 0.52 129.57 0 206 M 0 206 C 111.34 207.28 224.14 207.35 360 206 M 0 206 C 90.01 206.93 179.74 206.74 360 206 M 360 206 C 361.29 146.93 361.51 85.68 360 26 M 360 206 C 361.95 166.23 361.08 124.07 360 26" fill="none" stroke="rgb(0, 0, 0)" stroke-linejoin="round" stroke-linecap="round" stroke-miterlimit="10" pointer-events="none"/><path d="M 0 26 M 0 26 C 85.83 25.44 173.55 25.88 360 26 M 0 26 C 104.25 24.8 207.7 24.79 360 26" fill="none" stroke="rgb(0, 0, 0)" stroke-linejoin="round" stroke-linecap="round" stroke-miterlimit="10" pointer-events="none"/><g fill="rgb(0, 0, 0)" font-family="Helvetica" font-weight="bold" pointer-events="none" text-anchor="middle" font-size="12px"><text x="179.5" y="17.5">NodeInfo</text></g><g fill="rgb(0, 0, 0)" font-family="Helvetica" pointer-events="none" clip-path="url(#mx-clip-4-31-352-26-0)" font-size="12px"><text x="5.5" y="43.5">-status_: NodeStatus</text></g><g fill="rgb(0, 0, 0)" font-family="Helvetica" pointer-events="none" clip-path="url(#mx-clip-4-57-352-26-0)" font-size="12px"><text x="5.5" y="69.5">-p_node_info_: PhysicalNodeInfo</text></g><g fill="rgb(0, 0, 0)" font-family="Helvetica" pointer-events="none" clip-path="url(#mx-clip-4-83-352-26-0)" font-size="12px"><text x="5.5" y="95.5">-l_node_info_: LogicalNodeInfo</text></g><path d="M 0 108 M 0 108 C 85.48 110.06 172.75 111 360 108 M 0 108 C 135.16 106.4 270.46 105.67 360 108" fill="none" stroke="rgb(0, 0, 0)" stroke-linejoin="round" stroke-linecap="round" stroke-miterlimit="10" pointer-events="none"/><g fill="rgb(0, 0, 0)" font-family="Helvetica" pointer-events="none" clip-path="url(#mx-clip-4-117-352-26-0)" font-size="12px"><text x="5.5" y="129.5">+NodeInfo()</text></g><g fill="rgb(0, 0, 0)" font-family="Helvetica" pointer-events="none" clip-path="url(#mx-clip-4-143-352-26-0)" font-size="12px"><text x="5.5" y="155.5">+NodeInfo(level: uint32_t, number: uint32_t, fanout: uint16_t)</text></g><g fill="rgb(0, 0, 0)" font-family="Helvetica" pointer-events="none" clip-path="url(#mx-clip-4-169-352-42-0)" font-size="12px"><text x="5.5" y="181.5">+NodeInfo(level: uint32_t, number: uint32_t, fanout: uint16_t,</text><text x="5.5" y="195.5">address: string, port: uint16_t)</text></g><path d="M 160 280 M 160 280 C 158.58 264.63 159.1 250.81 160 240 M 160 280 C 158.8 268.37 158.95 255.17 160 240 M 160 240 C 222.57 238.43 286.92 239.59 390 240 M 160 240 C 218.2 240.03 276.9 240.83 390 240 M 390 240 C 388.32 187.16 391.48 132.76 390 91 M 390 240 C 388.37 181.84 388.81 121.39 390 91 M 390 91 C 383.81 90.13 375.39 90.29 367.71 91 M 390 91 C 382.31 90.38 373.44 91.47 367.71 91" fill="none" stroke="rgb(0, 0, 0)" stroke-linejoin="round" stroke-linecap="round" stroke-miterlimit="10" pointer-events="none"/><path d="M 360.49 91.26 C 360.49 91.26 360.49 91.26 360.49 91.26 M 360.49 91.26 C 360.49 91.26 360.49 91.26 360.49 91.26 M 363.51 93.88 C 364.06 92.45 365.16 91.75 366.79 90.11 M 363.51 93.88 C 364.17 92.84 364.99 92.11 366.79 90.11" fill="none" stroke="rgb(0, 0, 0)" stroke-width="0.5" stroke-linejoin="round" stroke-linecap="round" stroke-miterlimit="10" pointer-events="none"/><path d="M 360.71 91 M 360.71 91 C 361.55 89.89 363.58 88.4 364.21 87.5 M 360.71 91 C 361.85 89.8 363.35 88.07 364.21 87.5 M 364.21 87.5 C 365.38 88.4 365.99 89.49 367.71 91 M 364.21 87.5 C 365.65 88.71 366.82 90.29 367.71 91 M 367.71 91 C 366.52 92.48 365.76 92.63 364.21 94.5 M 367.71 91 C 366.57 92.06 365.37 93.19 364.21 94.5 M 364.21 94.5 C 363.63 93.74 362 92.37 360.71 91 M 364.21 94.5 C 363.27 93.63 362.66 92.57 360.71 91" fill="none" stroke="rgb(0, 0, 0)" stroke-linejoin="round" stroke-linecap="round" stroke-miterlimit="10" pointer-events="none"/><path d="M -1.2 305.5 L -0.92 280.19 L 318.06 279.16 L 319.95 306.4" fill="rgb(255, 255, 255)" stroke="none" pointer-events="none"/><path d="M 0 306 M 0 306 C -1.72 294.05 0.87 286.37 0 280 M 0 306 C 0.41 299.08 0.46 290.82 0 280 M 0 280 C 85.78 281.87 171.35 281.44 320 280 M 0 280 C 78.21 278.67 156.43 277.82 320 280 M 320 280 C 319.22 284.07 318.78 290.64 320 306 M 320 280 C 320.23 288.85 319.35 297.27 320 306" fill="none" stroke="rgb(0, 0, 0)" stroke-linejoin="round" stroke-linecap="round" stroke-miterlimit="10" pointer-events="none"/><path d="M 0 306 M 0 306 C -0.45 414.58 -0.94 524.97 0 762 M 0 306 C 1.88 451.55 1.42 598.11 0 762 M 0 762 C 103.39 762.54 207.98 762.61 320 762 M 0 762 C 96.11 760.58 193.32 760.85 320 762 M 320 762 C 322.03 623.44 322.07 484.9 320 306 M 320 762 C 322.08 638.22 321.73 514.49 320 306" fill="none" stroke="rgb(0, 0, 0)" stroke-linejoin="round" stroke-linecap="round" stroke-miterlimit="10" pointer-events="none"/><path d="M 0 306 M 0 306 C 76.97 305.67 153.09 307 320 306 M 0 306 C 102.44 305.16 204.18 306.06 320 306" fill="none" stroke="rgb(0, 0, 0)" stroke-linejoin="round" stroke-linecap="round" stroke-miterlimit="10" pointer-events="none"/><g fill="rgb(0, 0, 0)" font-family="Helvetica" font-weight="bold" pointer-events="none" text-anchor="middle" font-size="12px"><text x="159.5" y="297.5">LogicalNodeInfo</text></g><g fill="rgb(0, 0, 0)" font-family="Helvetica" pointer-events="none" clip-path="url(#mx-clip-4-311-312-26-0)" font-size="12px"><text x="5.5" y="323.5">-level_: uint32_t</text></g><g fill="rgb(0, 0, 0)" font-family="Helvetica" pointer-events="none" clip-path="url(#mx-clip-4-337-312-26-0)" font-size="12px"><text x="5.5" y="349.5">-number_: uint32_t</text></g><g fill="rgb(0, 0, 0)" font-family="Helvetica" pointer-events="none" clip-path="url(#mx-clip-4-363-312-26-0)" font-size="12px"><text x="5.5" y="375.5">-fanout_: uint16_t</text></g><g fill="rgb(0, 0, 0)" font-family="Helvetica" pointer-events="none" clip-path="url(#mx-clip-4-389-312-26-0)" font-size="12px"><text x="5.5" y="401.5">-uuid_: UUID</text></g><g fill="rgb(0, 0, 0)" font-family="Helvetica" pointer-events="none" clip-path="url(#mx-clip-4-415-312-26-0)" font-size="12px"><text x="5.5" y="427.5">-initialized_: bool</text></g><path d="M 0 440 M 0 440 C 77.38 441.18 153.82 442.92 320 440 M 0 440 C 107.27 440.04 214.63 440.7 320 440" fill="none" stroke="rgb(0, 0, 0)" stroke-linejoin="round" stroke-linecap="round" stroke-miterlimit="10" pointer-events="none"/><g fill="rgb(0, 0, 0)" font-family="Helvetica" pointer-events="none" clip-path="url(#mx-clip-4-449-312-26-0)" font-size="12px"><text x="5.5" y="461.5">+LogicalNodeInfo()</text></g><g fill="rgb(0, 0, 0)" font-family="Helvetica" pointer-events="none" clip-path="url(#mx-clip-4-475-312-26-0)" font-size="12px"><text x="5.5" y="487.5">+LogicalNodeInfo(fanout: uint16_t)</text></g><g fill="rgb(0, 0, 0)" font-family="Helvetica" pointer-events="none" clip-path="url(#mx-clip-4-501-312-24-0)" font-size="12px"><text x="5.5" y="513.5">+LogicalNodeInfo(level: uint32_t, number: uint32_t)</text></g><g fill="rgb(0, 0, 0)" font-family="Helvetica" pointer-events="none" clip-path="url(#mx-clip-4-525-312-44-0)" font-size="12px"><text x="5.5" y="537.5">+LogicalNodeInfo(level: uint32_t, number: uint32_t, </text><text x="5.5" y="551.5">fanout: uint16_t)</text></g><g fill="rgb(0, 0, 0)" font-family="Helvetica" pointer-events="none" clip-path="url(#mx-clip-4-569-312-26-0)" font-size="12px"><text x="5.5" y="581.5">+setPosition(other: LogicalNodeInfo)</text></g><g fill="rgb(0, 0, 0)" font-family="Helvetica" pointer-events="none" clip-path="url(#mx-clip-4-595-312-26-0)" font-size="12px"><text x="5.5" y="607.5">+getHorizontalValue(): double</text></g><g fill="rgb(0, 0, 0)" font-family="Helvetica" pointer-events="none" clip-path="url(#mx-clip-4-621-312-26-0)" font-size="12px"><text x="5.5" y="633.5">+isRoot(): bool</text></g><g fill="rgb(0, 0, 0)" font-family="Helvetica" pointer-events="none" clip-path="url(#mx-clip-4-647-312-28-0)" font-size="12px"><text x="5.5" y="659.5">+isSameLevel(other: LogicalNodeInfo): bool</text></g><g fill="rgb(0, 0, 0)" font-family="Helvetica" pointer-events="none" clip-path="url(#mx-clip-4-675-312-30-0)" font-size="12px"><text x="5.5" y="687.5">+isDeeperThan(other: LogicalNodeInfo): bool</text></g><g fill="rgb(0, 0, 0)" font-family="Helvetica" pointer-events="none" clip-path="url(#mx-clip-4-705-312-38-0)" font-size="12px"><text x="5.5" y="717.5">+isDeeperThanOrSameLevel(other: LogicalNodeInfo): </text><text x="5.5" y="731.5">bool</text></g><g fill="rgb(0, 0, 0)" font-family="Helvetica" pointer-events="none" clip-path="url(#mx-clip-4-743-312-24-0)" font-size="12px"><text x="5.5" y="755.5">+isProNode(): bool</text></g><path d="M 420 280 M 420 280 C 421.98 206.89 421 132.99 420 65 M 420 280 C 420.1 202.67 419.22 125.7 420 65 M 420 65 C 408.58 62.76 396.79 62.8 367.71 65 M 420 65 C 404.93 65.53 387.11 64.91 367.71 65" fill="none" stroke="rgb(0, 0, 0)" stroke-linejoin="round" stroke-linecap="round" stroke-miterlimit="10" pointer-events="none"/><path d="M 360.74 64.97 C 360.74 64.97 360.74 64.97 360.74 64.97 M 360.74 64.97 C 360.74 64.97 360.74 64.97 360.74 64.97 M 363.75 67.59 C 364.29 66.37 364.72 65.6 367.03 63.82 M 363.75 67.59 C 364.98 66.45 365.51 65.15 367.03 63.82" fill="none" stroke="rgb(0, 0, 0)" stroke-width="0.5" stroke-linejoin="round" stroke-linecap="round" stroke-miterlimit="10" pointer-events="none"/><path d="M 360.71 65 M 360.71 65 C 361.41 63.78 362.04 62.96 364.21 61.5 M 360.71 65 C 361.96 64.03 363.16 62.65 364.21 61.5 M 364.21 61.5 C 364.81 62.07 365.87 62.97 367.71 65 M 364.21 61.5 C 364.98 62.4 366.21 63.2 367.71 65 M 367.71 65 C 366.49 65.74 365.16 67.16 364.21 68.5 M 367.71 65 C 366.64 66.2 365.4 67.38 364.21 68.5 M 364.21 68.5 C 362.82 67.61 362.54 66.83 360.71 65 M 364.21 68.5 C 362.95 67.35 362.09 66.36 360.71 65" fill="none" stroke="rgb(0, 0, 0)" stroke-linejoin="round" stroke-linecap="round" stroke-miterlimit="10" pointer-events="none"/><path d="M 398.87 307.05 L 401.26 280.8 L 599.58 279.07 L 601.39 304.69" fill="rgb(255, 255, 255)" stroke="none" pointer-events="none"/><path d="M 400 306 M 400 306 C 399.12 296.87 401.79 287.82 400 280 M 400 306 C 399.6 297.51 400.49 290.29 400 280 M 400 280 C 444.71 281.18 485.92 280.26 600 280 M 400 280 C 454.17 281.37 507.57 282.24 600 280 M 600 280 C 599.7 288.46 601.62 296.18 600 306 M 600 280 C 599.75 289.26 600.58 298.92 600 306" fill="none" stroke="rgb(0, 0, 0)" stroke-linejoin="round" stroke-linecap="round" stroke-miterlimit="10" pointer-events="none"/><path d="M 400 306 M 400 306 C 401.73 348.4 399.99 393.03 400 482 M 400 306 C 401.83 346.95 401.73 389.57 400 482 M 400 482 C 475.71 480.24 548.96 481.85 600 482 M 400 482 C 463.78 481.03 528.99 480.01 600 482 M 600 482 C 598.59 444.65 599.64 405.58 600 306 M 600 482 C 600.02 420.19 600.94 359.53 600 306" fill="none" stroke="rgb(0, 0, 0)" stroke-linejoin="round" stroke-linecap="round" stroke-miterlimit="10" pointer-events="none"/><path d="M 400 306 M 400 306 C 449.38 304.48 496.47 306.11 600 306 M 400 306 C 447.32 304.4 494.16 305.6 600 306" fill="none" stroke="rgb(0, 0, 0)" stroke-linejoin="round" stroke-linecap="round" stroke-miterlimit="10" pointer-events="none"/><g fill="rgb(0, 0, 0)" font-family="Helvetica" font-weight="bold" pointer-events="none" text-anchor="middle" font-size="12px"><text x="499.5" y="297.5">PhysicalNodeInfo</text></g><g fill="rgb(0, 0, 0)" font-family="Helvetica" pointer-events="none" clip-path="url(#mx-clip-404-311-192-26-0)" font-size="12px"><text x="405.5" y="323.5">-address_: string</text></g><g fill="rgb(0, 0, 0)" font-family="Helvetica" pointer-events="none" clip-path="url(#mx-clip-404-337-192-26-0)" font-size="12px"><text x="405.5" y="349.5">-port_: uint16_t</text></g><path d="M 400 362 M 400 362 C 447.32 365.09 495.9 363.48 600 362 M 400 362 C 476.48 362.21 551.35 362.01 600 362" fill="none" stroke="rgb(0, 0, 0)" stroke-linejoin="round" stroke-linecap="round" stroke-miterlimit="10" pointer-events="none"/><g fill="rgb(0, 0, 0)" font-family="Helvetica" pointer-events="none" clip-path="url(#mx-clip-404-371-192-26-0)" font-size="12px"><text x="405.5" y="383.5">+PhysicalNodeInfo()</text></g><g fill="rgb(0, 0, 0)" font-family="Helvetica" pointer-events="none" clip-path="url(#mx-clip-404-397-192-38-0)" font-size="12px"><text x="405.5" y="409.5">+PhysicalNodeInfo(address: string, </text><text x="405.5" y="423.5">port: uint16_t)</text></g><g fill="rgb(0, 0, 0)" font-family="Helvetica" text-decoration="underline" pointer-events="none" clip-path="url(#mx-clip-404-435-192-26-0)" font-size="12px"><text x="405.5" y="447.5">-isIpv4Address(str: string): bool</text></g><g fill="rgb(0, 0, 0)" font-family="Helvetica" text-decoration="underline" pointer-events="none" clip-path="url(#mx-clip-404-461-192-26-0)" font-size="12px"><text x="405.5" y="473.5">-isIpv6Address(str: string): bool</text></g><path d="M 438.87 24.41 L 438.89 0.23 L 599.44 1.79 L 598.04 26.45" fill="rgb(255, 255, 255)" stroke="none" pointer-events="none"/><path d="M 440 26 M 440 26 C 441.24 18.84 441.66 14.23 440 0 M 440 26 C 440.01 20.93 440.23 14.2 440 0 M 440 0 C 485.57 0.48 531.34 -0.62 600 0 M 440 0 C 475.11 0.61 512.11 0.47 600 0 M 600 0 C 600.5 9.68 601.53 21.63 600 26 M 600 0 C 599.87 7.83 600.31 15.91 600 26" fill="none" stroke="rgb(0, 0, 0)" stroke-linejoin="round" stroke-linecap="round" stroke-miterlimit="10" pointer-events="none"/><path d="M 440 26 M 440 26 C 439.41 50.74 440.96 74.65 440 130 M 440 26 C 438.53 60.06 438.73 93.82 440 130 M 440 130 C 489.8 129.44 541.8 129.89 600 130 M 440 130 C 475.85 131.33 511.97 131.31 600 130 M 600 130 C 600.35 100.31 601.32 74.37 600 26 M 600 130 C 599.6 97.74 598.62 65.62 600 26" fill="none" stroke="rgb(0, 0, 0)" stroke-linejoin="round" stroke-linecap="round" stroke-miterlimit="10" pointer-events="none"/><path d="M 440 26 M 440 26 C 479.16 26.33 519.64 24.94 600 26 M 440 26 C 490.85 27.9 542.67 28.11 600 26" fill="none" stroke="rgb(0, 0, 0)" stroke-linejoin="round" stroke-linecap="round" stroke-miterlimit="10" pointer-events="none"/><g fill="rgb(0, 0, 0)" font-family="Helvetica" font-weight="bold" pointer-events="none" text-anchor="middle" font-size="12px"><text x="519.5" y="17.5">&lt;&lt;enum&gt;&gt; NodeStatus</text></g><g fill="rgb(0, 0, 0)" font-family="Helvetica" pointer-events="none" clip-path="url(#mx-clip-444-31-152-26-0)" font-size="12px"><text x="445.5" y="43.5">kUninit = 0</text></g><g fill="rgb(0, 0, 0)" font-family="Helvetica" pointer-events="none" clip-path="url(#mx-clip-444-57-152-26-0)" font-size="12px"><text x="445.5" y="69.5">kRunning = 1</text></g><g fill="rgb(0, 0, 0)" font-family="Helvetica" pointer-events="none" clip-path="url(#mx-clip-444-83-152-26-0)" font-size="12px"><text x="445.5" y="95.5">kLeft = 2</text></g><g fill="rgb(0, 0, 0)" font-family="Helvetica" pointer-events="none" clip-path="url(#mx-clip-444-109-152-26-0)" font-size="12px"><text x="445.5" y="121.5">kFailed = 3</text></g><path d="M 367.71 40 M 367.71 40 C 377.52 40.51 383.62 41.09 400 40 M 367.71 40 C 375.95 41.16 386.54 39.92 400 40 M 400 40 C 414.94 41.59 429.09 42.03 440 40 M 400 40 C 412.13 41.23 422.59 40.65 440 40" fill="none" stroke="rgb(0, 0, 0)" stroke-linejoin="round" stroke-linecap="round" stroke-miterlimit="10" pointer-events="none"/><path d="M 360.82 39.87 C 360.82 39.87 360.82 39.87 360.82 39.87 M 360.82 39.87 C 360.82 39.87 360.82 39.87 360.82 39.87 M 363.84 42.5 C 365.13 41.48 366.19 40.2 367.12 38.72 M 363.84 42.5 C 365.01 41.69 365.72 40.47 367.12 38.72" fill="none" stroke="rgb(0, 0, 0)" stroke-width="0.5" stroke-linejoin="round" stroke-linecap="round" stroke-miterlimit="10" pointer-events="none"/><path d="M 360.71 40 M 360.71 40 C 362.12 38.92 363.28 37.53 364.21 36.5 M 360.71 40 C 361.88 38.98 363.01 37.57 364.21 36.5 M 364.21 36.5 C 365.62 37.52 366.45 39.57 367.71 40 M 364.21 36.5 C 365.46 37.86 366.7 39.17 367.71 40 M 367.71 40 C 366.75 41.42 365.43 42.5 364.21 43.5 M 367.71 40 C 366.84 40.94 365.82 41.48 364.21 43.5 M 364.21 43.5 C 362.83 42.32 361.61 41.27 360.71 40 M 364.21 43.5 C 362.85 42.09 361.41 41.04 360.71 40" fill="none" stroke="rgb(0, 0, 0)" stroke-linejoin="round" stroke-linecap="round" stroke-miterlimit="10" pointer-events="none"/></g></svg>